<svg width="100" height="16" viewBox="0 0 100 16" fill="none" xmlns="http://www.w3.org/2000/svg">
<g clip-path="url(#clip0_1_527)">
<path d="M15.9771 6.16432C15.922 5.9946 15.7754 5.87091 15.5988 5.84529L10.6387 5.12451L8.42046 0.629933C8.34152 0.469933 8.17856 0.368652 8.00015 0.368652C7.82171 0.368652 7.65877 0.469933 7.57981 0.629933L5.36144 5.12451L0.40146 5.84529C0.22493 5.87091 0.0782114 5.9946 0.0230866 6.16429C-0.0320694 6.334 0.0139304 6.52029 0.141711 6.64482L3.7307 10.1434L2.88358 15.0834C2.85339 15.2593 2.9257 15.437 3.07004 15.5419C3.1517 15.6012 3.24842 15.6314 3.3456 15.6314C3.42023 15.6314 3.4951 15.6136 3.56367 15.5776L8.00012 13.2451L12.4364 15.5775C12.5943 15.6606 12.7857 15.6468 12.93 15.5419C13.0744 15.437 13.1467 15.2593 13.1166 15.0834L12.2692 10.1434L15.8586 6.64478C15.9863 6.52028 16.0323 6.334 15.9771 6.16432Z" fill="#F5AD0D"/>
</g>
<g clip-path="url(#clip1_1_527)">
<path d="M36.9771 6.16432C36.922 5.9946 36.7754 5.87091 36.5988 5.84529L31.6387 5.12451L29.4205 0.629933C29.3415 0.469933 29.1786 0.368652 29.0001 0.368652C28.8217 0.368652 28.6588 0.469933 28.5798 0.629933L26.3614 5.12451L21.4015 5.84529C21.2249 5.87091 21.0782 5.9946 21.0231 6.16429C20.9679 6.334 21.0139 6.52029 21.1417 6.64482L24.7307 10.1434L23.8836 15.0834C23.8534 15.2593 23.9257 15.437 24.07 15.5419C24.1517 15.6012 24.2484 15.6314 24.3456 15.6314C24.4202 15.6314 24.4951 15.6136 24.5637 15.5776L29.0001 13.2451L33.4364 15.5775C33.5943 15.6606 33.7857 15.6468 33.93 15.5419C34.0744 15.437 34.1467 15.2593 34.1166 15.0834L33.2692 10.1434L36.8586 6.64478C36.9863 6.52028 37.0323 6.334 36.9771 6.16432Z" fill="#F5AD0D"/>
</g>
<g clip-path="url(#clip2_1_527)">
<path d="M57.9771 6.16432C57.922 5.9946 57.7754 5.87091 57.5988 5.84529L52.6387 5.12451L50.4205 0.629933C50.3415 0.469933 50.1786 0.368652 50.0001 0.368652C49.8217 0.368652 49.6588 0.469933 49.5798 0.629933L47.3614 5.12451L42.4015 5.84529C42.2249 5.87091 42.0782 5.9946 42.0231 6.16429C41.9679 6.334 42.0139 6.52029 42.1417 6.64482L45.7307 10.1434L44.8836 15.0834C44.8534 15.2593 44.9257 15.437 45.07 15.5419C45.1517 15.6012 45.2484 15.6314 45.3456 15.6314C45.4202 15.6314 45.4951 15.6136 45.5637 15.5776L50.0001 13.2451L54.4364 15.5775C54.5943 15.6606 54.7857 15.6468 54.93 15.5419C55.0744 15.437 55.1467 15.2593 55.1166 15.0834L54.2692 10.1434L57.8586 6.64478C57.9863 6.52028 58.0323 6.334 57.9771 6.16432Z" fill="#F5AD0D"/>
</g>
<g clip-path="url(#clip3_1_527)">
<path d="M78.9771 6.16432C78.922 5.9946 78.7754 5.87091 78.5988 5.84529L73.6387 5.12451L71.4205 0.629933C71.3415 0.469933 71.1786 0.368652 71.0001 0.368652C70.8217 0.368652 70.6588 0.469933 70.5798 0.629933L68.3614 5.12451L63.4015 5.84529C63.2249 5.87091 63.0782 5.9946 63.0231 6.16429C62.9679 6.334 63.0139 6.52029 63.1417 6.64482L66.7307 10.1434L65.8836 15.0834C65.8534 15.2593 65.9257 15.437 66.07 15.5419C66.1517 15.6012 66.2484 15.6314 66.3456 15.6314C66.4202 15.6314 66.4951 15.6136 66.5637 15.5776L71.0001 13.2451L75.4364 15.5775C75.5943 15.6606 75.7857 15.6468 75.93 15.5419C76.0744 15.437 76.1467 15.2593 76.1166 15.0834L75.2692 10.1434L78.8586 6.64478C78.9863 6.52028 79.0323 6.334 78.9771 6.16432Z" fill="#F5AD0D"/>
</g>
<g clip-path="url(#clip4_1_527)">
<path d="M99.9771 6.16432C99.922 5.9946 99.7754 5.87091 99.5988 5.84529L94.6387 5.12451L92.4205 0.629933C92.3415 0.469933 92.1786 0.368652 92.0001 0.368652C91.8217 0.368652 91.6588 0.469933 91.5798 0.629933L89.3614 5.12451L84.4015 5.84529C84.2249 5.87091 84.0782 5.9946 84.0231 6.16429C83.9679 6.334 84.0139 6.52029 84.1417 6.64482L87.7307 10.1434L86.8836 15.0834C86.8534 15.2593 86.9257 15.437 87.07 15.5419C87.1517 15.6012 87.2484 15.6314 87.3456 15.6314C87.4202 15.6314 87.4951 15.6136 87.5637 15.5776L92.0001 13.2451L96.4364 15.5775C96.5943 15.6606 96.7857 15.6468 96.93 15.5419C97.0744 15.437 97.1467 15.2593 97.1166 15.0834L96.2692 10.1434L99.8586 6.64478C99.9863 6.52028 100.032 6.334 99.9771 6.16432Z" fill="#F5AD0D"/>
</g>
<defs>
<clipPath id="clip0_1_527">
<rect width="16" height="16" fill="white"/>
</clipPath>
<clipPath id="clip1_1_527">
<rect width="16" height="16" fill="white" transform="translate(21)"/>
</clipPath>
<clipPath id="clip2_1_527">
<rect width="16" height="16" fill="white" transform="translate(42)"/>
</clipPath>
<clipPath id="clip3_1_527">
<rect width="16" height="16" fill="white" transform="translate(63)"/>
</clipPath>
<clipPath id="clip4_1_527">
<rect width="16" height="16" fill="white" transform="translate(84)"/>
</clipPath>
</defs>
</svg>
